<?xml version="1.0" encoding="UTF-8" standalone="no"?>
<!-- Created with Inkscape (http://www.inkscape.org/) -->

<svg
   xmlns:dc="http://purl.org/dc/elements/1.1/"
   xmlns:cc="http://creativecommons.org/ns#"
   xmlns:rdf="http://www.w3.org/1999/02/22-rdf-syntax-ns#"
   xmlns:svg="http://www.w3.org/2000/svg"
   xmlns="http://www.w3.org/2000/svg"
   xmlns:sodipodi="http://sodipodi.sourceforge.net/DTD/sodipodi-0.dtd"
   xmlns:inkscape="http://www.inkscape.org/namespaces/inkscape"
   width="28.222221mm"
   height="21.21636mm"
   viewBox="0 0 99.999997 75.176079"
   id="svg11582"
   version="1.1"
   inkscape:version="0.91 r13725"
   sodipodi:docname="porquinho.svg">
  <defs
     id="defs11584" />
  <sodipodi:namedview
     id="base"
     pagecolor="#ffffff"
     bordercolor="#666666"
     borderopacity="1.0"
     inkscape:pageopacity="0.0"
     inkscape:pageshadow="2"
     inkscape:zoom="2.8"
     inkscape:cx="-2.9033922"
     inkscape:cy="10.233162"
     inkscape:document-units="px"
     inkscape:current-layer="layer1"
     showgrid="false"
     fit-margin-top="0"
     fit-margin-left="0"
     fit-margin-right="0"
     fit-margin-bottom="0"
     inkscape:window-width="1600"
     inkscape:window-height="841"
     inkscape:window-x="1024"
     inkscape:window-y="30"
     inkscape:window-maximized="1" />
  <metadata
     id="metadata11587">
    <rdf:RDF>
      <cc:Work
         rdf:about="">
        <dc:format>image/svg+xml</dc:format>
        <dc:type
           rdf:resource="http://purl.org/dc/dcmitype/StillImage" />
        <dc:title />
      </cc:Work>
    </rdf:RDF>
  </metadata>
  <g
     inkscape:label="Camada 1"
     inkscape:groupmode="layer"
     id="layer1"
     transform="translate(-220.80579,-122.47093)">
    <g
       transform="matrix(0.09902784,0,0,0.09902784,689.34517,305.52874)"
       id="g11381"
       style="fill:#f1f1f1;fill-opacity:1">
      <path
         d="m -4334.9465,-1332.9464 c 23.8244,8.233 48.4569,12.6023 72.6287,12.6023 33.9557,0 63.9126,-8.5705 86.2092,-24.2173 11.12,-7.829 20.2968,-17.4771 26.7219,-28.6762 6.4139,-11.2887 9.9632,-24.0597 9.952,-37.5723 0,-15.8155 -3.6508,-30.0689 -9.9632,-42.4247 -9.4801,-18.6233 -24.442,-32.799 -40.9087,-44.2445 -16.5004,-11.4574 -34.719,-20.3535 -51.7928,-28.261 l 0.099,0.086 c -20.0273,-9.3904 -39.201,-20.5888 -52.6575,-34.1917 -6.7507,-6.8291 -12.0862,-14.1749 -15.7819,-22.3183 -3.6726,-8.1665 -5.7844,-17.141 -5.7956,-27.7778 0,-8.7281 2.2014,-16.6355 6.3802,-23.9701 6.234,-11.0416 17.2643,-20.7576 32.5624,-27.8451 15.2651,-7.0881 34.6524,-11.3671 56.6563,-11.3671 20.8591,0 42.5711,3.8637 63.7215,11.12 7.1105,2.471 14.8835,-1.3255 17.3433,-8.4018 2.4598,-7.1778 -1.3255,-14.9171 -8.436,-17.3882 -23.8238,-8.233 -48.4563,-12.6135 -72.6288,-12.6135 -33.9557,0 -63.9237,8.5699 -86.2085,24.2278 -11.1199,7.829 -20.308,17.4666 -26.7219,28.7553 -6.4251,11.2096 -9.9744,24.0598 -9.9632,37.4827 0,14.3437 2.9766,27.4403 8.233,39.0546 7.8857,17.3882 20.5783,31.1479 34.9668,42.3575 14.4334,11.199 30.6984,20.0167 46.682,27.5985 l 0.112,0 c 22.1839,10.2104 44.7501,21.7456 60.8457,36.2468 8.0762,7.1666 14.5237,15.0852 18.9609,23.8126 4.4365,8.728 6.9866,18.3762 7.009,30.0696 0,8.7385 -2.2133,16.646 -6.3803,24.0597 -6.2451,10.9512 -17.2754,20.7576 -32.5742,27.8451 -15.2644,7.009 -34.6517,11.2886 -56.6451,11.2886 -20.8696,0 -42.5704,-3.7853 -63.7102,-11.1199 -7.1323,-2.471 -14.8941,1.3143 -17.3539,8.4018 -2.4598,7.1659 1.3143,14.9164 8.4354,17.3875"
         style="fill:#f1f1f1;fill-opacity:1;fill-rule:nonzero;stroke:none"
         id="path2112"
         inkscape:connector-curvature="0" />
      <path
         d="m -4246.1206,-1739.6281 0,53.231 c 0,7.5706 6.1106,13.6694 13.6476,13.6694 7.537,0 13.6477,-6.0988 13.6477,-13.6694 l 0,-53.231 c 0,-7.5818 -6.1107,-13.6806 -13.6477,-13.6806 -7.537,0 -13.6476,6.0988 -13.6476,13.6806"
         style="fill:#f1f1f1;fill-opacity:1;fill-rule:nonzero;stroke:none"
         id="path2114"
         inkscape:connector-curvature="0" />
      <path
         d="m -4246.1206,-1336.5749 0,50.7481 c 0,7.5818 6.1106,13.6812 13.6476,13.6812 7.537,0 13.6477,-6.0994 13.6477,-13.6812 l 0,-50.7481 c 0,-7.4922 -6.1107,-13.591 -13.6477,-13.591 -7.537,0 -13.6476,6.0988 -13.6476,13.591"
         style="fill:#f1f1f1;fill-opacity:1;fill-rule:nonzero;stroke:none"
         id="path2116"
         inkscape:connector-curvature="0" />
      <path
         d="m -3917.2576,-1671.9862 12.8277,4.6164 c 6.8403,-18.7802 16.961,-43.8286 29.4849,-67.1475 12.4679,-23.3966 27.6427,-45.0644 42.8855,-57.0156 4.0885,-3.2909 5.9643,-8.5704 4.8412,-13.6812 -1.1232,-5.099 -5.0772,-9.053 -10.1544,-10.2889 -4.6949,-1.1567 -9.5473,-1.651 -14.5348,-1.651 -15.051,0.092 -31.3496,4.3692 -48.1083,11.783 -16.7251,7.4131 -33.8094,18.129 -49.7482,31.6416 -6.8857,5.841 -15.4562,8.8064 -23.8244,8.8064 -7.3234,0 -14.3997,-2.2245 -20.4313,-6.9194 -58.5098,-45.3116 -135.5197,-76.8636 -238.8013,-76.706 -134.587,-0.086 -232.9602,43.8398 -297.1647,106.6965 -64.227,62.8678 -94.2182,143.8535 -94.2294,217.5045 0,12.2774 0.3164,23.9029 0.8767,35.0229 0.066,0.9886 0.066,2.0558 0.066,3.1341 0,9.716 -2.3366,18.8593 -7.0994,26.0364 -1.8415,2.7966 -3.639,4.6053 -4.886,5.4252 -1.3031,0.8311 -1.7968,0.9102 -2.6958,0.9999 -0.4152,0 -0.9544,-0.092 -1.7407,-0.2505 -1.2359,-0.3361 -2.9318,-1.1567 -4.9988,-2.6398 -3.6165,-2.6397 -8.0873,-7.413 -12.7486,-13.2653 -7.0539,-8.8177 -14.5124,-19.8592 -23.5878,-29.4065 -4.5716,-4.7852 -9.6152,-9.312 -15.658,-12.8614 -5.9874,-3.4597 -13.1981,-5.9307 -21.0383,-5.9307 -3.5949,0 -7.1106,1.483 -9.6488,4.0325 -2.539,2.5613 -3.9989,6.021 -3.9989,9.6376 0,3.6278 1.4599,7.0875 3.9989,9.6488 2.5382,2.5494 6.0539,4.0325 9.6488,4.0325 l 0,-2.1455 -0.7864,1.9879 0.7864,0.1582 0,-2.1454 -0.7864,1.9879 0.079,-0.1714 -0.099,0.1714 0,0 0.079,-0.1714 -0.099,0.1714 c 0.066,0 1.191,0.7415 2.6958,2.5501 2.6958,3.1335 6.2227,9.1433 9.9408,16.3988 5.6835,10.8735 11.9735,24.386 20.6224,36.6627 4.3469,6.0883 9.3232,11.9406 15.4108,16.8827 6.0659,4.942 13.3669,8.9857 21.7687,10.884 6.1443,1.3142 11.9287,1.9773 17.3657,1.9773 15.5453,0.1582 27.9795,-5.6842 36.1229,-12.7717 l -8.8737,-10.3897 -13.4782,2.2351 c 12.3775,76.4589 39.1106,122.9167 61.2952,166.6669 11.1311,21.9143 21.1392,43.1774 28.4514,67.8884 7.2898,24.6325 11.9511,52.815 11.9511,88.9049 0,3.5382 1.4606,7.0875 4.0101,9.637 2.5389,2.4717 6.0546,3.954 9.6488,3.954 l 125.5222,0 c 5.8075,0 10.9855,-3.6278 12.895,-9.1432 8.9297,-25.7109 25.3292,-47.7043 46.4459,-63.272 21.1392,-15.5795 46.8731,-24.7228 74.8414,-24.7228 27.969,0 53.691,9.1433 74.8309,24.7228 21.1167,15.5677 37.5162,37.5611 46.4459,63.272 1.9095,5.5154 7.0763,9.1432 12.8831,9.1432 l 116.4581,0 c 3.5941,0 7.1099,-1.4823 9.6488,-3.954 2.5382,-2.5495 3.9988,-6.0988 3.9988,-9.637 -0.066,-11.4574 3.1447,-30.9007 11.0976,-52.7366 11.9063,-32.8661 34.3037,-71.348 71.1345,-101.3385 36.8875,-29.9905 88.1074,-51.9839 160.197,-52.0623 3.5942,0 7.1099,-1.4942 9.6488,-4.0437 2.5383,-2.471 3.9989,-6.0092 3.9989,-9.6376 l 0,-121.6921 c 0,-3.5381 -1.4606,-7.0874 -3.9989,-9.6376 -2.5389,-2.5494 -6.0546,-3.9533 -9.6488,-3.9533 -6.5707,0 -12.5351,-1.404 -18.6121,-4.2013 -10.5696,-4.7851 -21.4879,-14.254 -32.6415,-28.0137 -16.7587,-20.6001 -33.7309,-50.1753 -52.8262,-83.4567 -19.1177,-33.3718 -40.504,-70.3601 -66.99,-106.3709 l -10.9855,8.1546 12.8277,4.6164 -12.8277,-4.6164 -10.9736,8.0761 c 38.6394,52.3991 66.754,108.6739 94.3071,153.0865 13.8381,22.1614 27.5082,41.4367 43.211,55.9379 7.8514,7.1659 16.2874,13.1751 25.554,17.4659 9.2553,4.2012 19.376,6.5938 29.9568,6.5938 l 0,-13.6813 -13.6477,0 0,121.6921 13.6477,0 0,-13.591 c -51.8151,0 -95.0038,10.7041 -130.2962,28.0019 -52.9943,25.9587 -87.9051,66.3276 -109.3811,105.3045 -10.7607,19.5217 -18.2193,38.7178 -23.0269,55.8588 -4.8069,17.2194 -6.9971,32.2928 -7.0202,44.2445 l 13.6477,0 0,-13.6812 -116.4581,0 0,13.6812 12.9062,-4.538 c -10.7607,-30.8895 -30.4624,-57.4203 -56.0381,-76.2908 -25.554,-18.8705 -57.0611,-29.9904 -91.028,-29.9904 -33.9781,0 -65.4958,11.1199 -91.0385,29.9904 -25.5652,18.8705 -45.278,45.4013 -56.0276,76.2908 l 12.8838,4.538 0,-13.6812 -125.5222,0 0,13.6812 13.6365,0 c 0,-38.3929 -5.0436,-69.5401 -13.0749,-96.6436 -12.0863,-40.7855 -30.496,-72.0112 -47.378,-106.0341 -16.9274,-34.1132 -32.7766,-71.1016 -41.6054,-125.2421 -0.7857,-4.8524 -4.167,-8.8954 -8.7834,-10.6256 -4.6165,-1.6511 -9.84,-0.7415 -13.5686,2.471 -4.1228,3.4597 -9.2,6.1891 -18.3538,6.2676 -3.2237,0 -6.9754,-0.3362 -11.3223,-1.3248 -3.078,-0.7416 -5.8971,-2.0558 -8.784,-4.1116 -5.0436,-3.4709 -10.1432,-9.4801 -14.8605,-16.8932 -7.1665,-11.0415 -13.299,-24.8797 -19.9712,-36.8314 -3.4037,-6.0092 -6.8858,-11.6143 -11.6255,-16.5564 -2.3702,-2.471 -5.1332,-4.774 -8.5593,-6.5147 -3.3918,-1.8086 -7.5594,-3.0444 -11.8727,-3.0444 -3.5941,0 -7.1099,1.483 -9.6488,4.0324 -2.5382,2.5614 -3.9982,6.0211 -3.9982,9.6376 0,3.6285 1.46,7.0875 3.9982,9.6488 2.5389,2.5495 6.0547,4.0325 9.6488,4.0325 1.7638,0 3.4149,0.3362 5.414,1.2352 3.4709,1.483 7.8738,4.9427 12.4903,10.0535 6.9866,7.5027 14.2204,18.129 22.1957,28.0131 4.0213,4.9427 8.2667,9.7161 13.187,13.9285 4.8972,4.2012 10.6032,7.9074 17.5786,9.8057 2.9318,0.8199 5.9196,1.2358 8.9073,1.2358 6.7843,0.086 13.2318,-2.3141 18.2299,-5.8523 5.0548,-3.4597 8.9073,-7.997 12.1198,-12.771 8.3121,-12.6142 11.6255,-27.1939 11.6255,-41.1105 0,-1.5726 0,-3.0556 -0.112,-4.538 -0.5405,-10.6263 -0.8424,-21.8359 -0.8424,-33.6189 -0.01,-66.3164 27.2051,-140.5514 86.0293,-197.971 58.8354,-57.5106 149.3235,-98.8682 278.0807,-98.9578 97.801,0.092 167.734,29.1705 222.0986,71.0225 10.9855,8.5705 24.15,12.6926 37.1346,12.6029 14.8493,0 29.5977,-5.2683 41.4591,-15.2427 13.9726,-11.8615 29.069,-21.2512 43.2223,-27.5194 14.1301,-6.3348 27.3843,-9.4689 36.9995,-9.3898 3.1789,0 5.9307,0.3361 8.1994,0.8311 l 3.1677,-13.2772 -8.4802,-10.7041 c -20.252,16.2308 -36.4379,40.4481 -49.9736,65.507 -13.4446,25.1275 -23.9358,51.1527 -31.0912,70.7648 -1.5614,4.2908 -0.8647,9.0641 1.8535,12.771 l 10.9743,-8.0761"
         style="fill:#f1f1f1;fill-opacity:1;fill-rule:nonzero;stroke:none"
         id="path2118"
         inkscape:connector-curvature="0" />
    </g>
  </g>
</svg>
