<?xml version="1.0" encoding="UTF-8" standalone="no"?>
<!-- Created with Inkscape (http://www.inkscape.org/) -->

<svg
   xmlns:dc="http://purl.org/dc/elements/1.1/"
   xmlns:cc="http://creativecommons.org/ns#"
   xmlns:rdf="http://www.w3.org/1999/02/22-rdf-syntax-ns#"
   xmlns:svg="http://www.w3.org/2000/svg"
   xmlns="http://www.w3.org/2000/svg"
   xmlns:sodipodi="http://sodipodi.sourceforge.net/DTD/sodipodi-0.dtd"
   xmlns:inkscape="http://www.inkscape.org/namespaces/inkscape"
   width="223.85748mm"
   height="223.87833mm"
   viewBox="0 0 793.19581 793.26966"
   id="svg7410"
   version="1.1"
   inkscape:version="0.91 r13725"
   sodipodi:docname="entrega.svg">
  <defs
     id="defs7412" />
  <sodipodi:namedview
     id="base"
     pagecolor="#ffffff"
     bordercolor="#666666"
     borderopacity="1.0"
     inkscape:pageopacity="0.0"
     inkscape:pageshadow="2"
     inkscape:zoom="0.12374369"
     inkscape:cx="-329.05685"
     inkscape:cy="876.97961"
     inkscape:document-units="px"
     inkscape:current-layer="layer1"
     showgrid="false"
     showborder="true"
     inkscape:window-width="1600"
     inkscape:window-height="841"
     inkscape:window-x="1024"
     inkscape:window-y="30"
     inkscape:window-maximized="1"
     fit-margin-top="0"
     fit-margin-left="0"
     fit-margin-right="0"
     fit-margin-bottom="0" />
  <metadata
     id="metadata7415">
    <rdf:RDF>
      <cc:Work
         rdf:about="">
        <dc:format>image/svg+xml</dc:format>
        <dc:type
           rdf:resource="http://purl.org/dc/dcmitype/StillImage" />
        <dc:title></dc:title>
      </cc:Work>
    </rdf:RDF>
  </metadata>
  <g
     inkscape:label="Camada 1"
     inkscape:groupmode="layer"
     id="layer1"
     transform="translate(2230.8836,-352.87023)">
    <path
       inkscape:connector-curvature="0"
       id="path652"
       style="fill:#f1f1f1;fill-opacity:1;fill-rule:nonzero;stroke:none"
       d="m -1580.8962,1135.4061 7.5884,7.5708 59.7357,-59.7357 c 2.6468,-2.6557 3.7057,-6.4763 2.8234,-10.0944 l -105.6175,-428.84323 -10.4123,2.58572 7.3238,7.89697 c 32.9998,-30.60929 62.2065,-57.73297 84.3529,-78.44154 11.118,-10.42055 20.4709,-19.1563 27.6176,-26.02084 7.3238,-6.79413 12.3534,-11.64714 15.0887,-14.3649 7.3238,-7.37661 13.0591,-17.54087 18.5293,-29.51473 8.2061,-17.92971 15.2653,-40.05903 21.3532,-61.7384 6.0004,-21.6887 10.8534,-42.8472 14.2945,-58.5091 0.3521,-1.94111 0.5307,-3.94434 0.5307,-5.82383 -0.088,-15.21145 -12.2648,-27.44108 -27.5296,-27.50269 -1.8531,0 -3.8827,0.18639 -5.8238,0.64358 l 0,0 c -20.8236,4.4647 -51.4411,11.58553 -80.1176,20.57654 -14.2945,4.53562 -28.1478,9.51187 -40.0595,14.95618 -11.9998,5.55874 -22.147,11.25882 -29.5588,18.57382 -2.3822,2.39104 -6.9701,7.24406 -13.6768,14.36438 -20.1178,21.29157 -58.5003,62.52385 -105.0003,112.74766 l 7.8535,7.24407 2.5583,-10.42056 -428.8257,-105.61803 c -3.7056,-0.90868 -7.4998,0.19157 -10.1466,2.84098 l -59.7362,59.73569 c -2.4703,2.40036 -3.5291,5.82383 -2.9994,9.19449 0.5307,3.36133 2.5582,6.27325 5.6467,7.89696 l 357.8845,187.11283 4.9405,-9.52068 -7.7644,-7.24458 c -87.5299,94.61551 -173.2072,187.49235 -210.6189,228.01013 l 7.8534,7.31499 1.0589,-10.68565 -81.4415,-7.76442 c -3.1765,-0.32619 -6.353,0.84707 -8.5592,3.04395 l -49.9411,49.96803 c -2.6473,2.64682 -3.7062,6.46742 -2.9119,10.03223 0.8823,3.61763 3.5291,6.52955 6.9702,7.69401 l 93.0006,31.58837 -42.9705,55.9151 c -3.3535,4.2793 -2.9119,10.3589 0.8818,14.1795 l 6.7066,6.6616 c 3.7937,3.8206 9.8821,4.2089 14.1174,0.9092 l 55.9415,-43.0414 31.5884,93.0089 c 1.1468,3.4944 4.0582,6.1412 7.6764,6.9883 3.6176,0.8383 7.4118,-0.1967 10.0586,-2.8498 l 49.9422,-49.968 c 2.2937,-2.2585 3.3525,-5.3646 3.0874,-8.6027 l -7.7644,-81.36224 -10.6763,0.9791 7.2352,7.89748 c 40.5882,-37.41221 133.4122,-122.97406 228.0894,-210.47753 l -7.2358,-7.89749 -9.5295,4.98557 187.1486,357.91031 c 1.4994,2.9736 4.4113,5.1093 7.8524,5.6297 3.353,0.5126 6.7946,-0.6529 9.1769,-3.0439 l -7.5884,-7.5708 9.5295,-4.9856 -187.06,-357.83991 c -1.588,-2.97353 -4.4114,-5.04718 -7.6764,-5.62915 -3.2645,-0.58249 -6.7056,0.45045 -9.0884,2.71775 -94.6766,87.43254 -187.5892,173.06532 -228.1773,210.4066 -2.4703,2.32943 -3.6177,5.56754 -3.3531,8.92939 l 7.2358,76.36842 -34.1472,34.244 -30.7941,-90.8741 c -1.1479,-3.2998 -3.7947,-5.8234 -7.0592,-6.8558 -3.3531,-0.9708 -6.8827,-0.3262 -9.6175,1.8091 l -60.442,46.4027 0,-0.067 -7.5878,7.5708 8.5586,6.5383 52.1474,-67.82682 c 2.0296,-2.71775 2.7348,-6.28257 1.765,-9.6439 -1.0588,-3.30024 -3.6181,-5.88545 -6.8826,-6.98829 l -90.883,-30.87386 34.2357,-34.17359 76.4119,7.31448 c 3.3531,0.32619 6.6176,-0.97029 8.9118,-3.43227 37.4117,-40.57939 123.0005,-133.38582 210.5304,-228.07174 2.2942,-2.39984 3.265,-5.82331 2.6468,-9.06194 -0.5307,-3.29972 -2.6468,-6.15002 -5.5587,-7.7028 l -345.002,-180.3099 45.0892,-45.17663 423.0018,104.1978 c 3.7942,0.97029 7.7644,-0.25371 10.4117,-3.10608 30.9707,-33.45907 58.4123,-62.90338 79.1478,-85.17405 10.4112,-11.06465 19.0589,-20.38237 25.6765,-27.44107 6.7056,-7.0499 11.2935,-11.91172 13.3232,-13.85283 3.9707,-4.1385 12.4414,-9.37984 23.2062,-14.23286 16.2356,-7.3849 37.5888,-14.37319 58.6769,-20.19702 21.0886,-5.88544 41.8236,-10.67633 57.1769,-13.91496 l 0.088,-0.0673 1.2354,-0.12945 c 1.7651,0 3.1765,0.65342 4.3233,1.81788 1.1474,1.16497 1.7651,2.5852 1.7651,4.27053 l -0.088,1.35914 c -4.4124,20.45279 -11.4711,50.61162 -20.1178,78.18524 -4.3244,13.72079 -9.1769,26.8591 -14.0299,37.65918 -4.853,10.74727 -10.1472,19.22672 -14.206,23.23268 -2.2942,2.33823 -7.4118,7.19125 -14.559,13.98537 -21.5292,20.32076 -62.4711,58.37655 -111.8825,104.26822 -2.9119,2.64682 -4.0588,6.59996 -3.1765,10.42055 l 104.2061,422.87859 -55.4999,55.4734 7.5879,7.5708 9.5295,-4.9851 -9.5295,4.9851" />
  </g>
</svg>
