<?xml version="1.0" encoding="UTF-8" standalone="no"?>
<!-- Created with Inkscape (http://www.inkscape.org/) -->

<svg
   xmlns:dc="http://purl.org/dc/elements/1.1/"
   xmlns:cc="http://creativecommons.org/ns#"
   xmlns:rdf="http://www.w3.org/1999/02/22-rdf-syntax-ns#"
   xmlns:svg="http://www.w3.org/2000/svg"
   xmlns="http://www.w3.org/2000/svg"
   xmlns:sodipodi="http://sodipodi.sourceforge.net/DTD/sodipodi-0.dtd"
   xmlns:inkscape="http://www.inkscape.org/namespaces/inkscape"
   width="28.222223mm"
   height="21.958078mm"
   viewBox="0 0 100 77.804214"
   id="svg12814"
   version="1.1"
   inkscape:version="0.91 r13725"
   sodipodi:docname="analise.svg">
  <defs
     id="defs12816" />
  <sodipodi:namedview
     id="base"
     pagecolor="#ffffff"
     bordercolor="#666666"
     borderopacity="1.0"
     inkscape:pageopacity="0.0"
     inkscape:pageshadow="2"
     inkscape:zoom="0.35"
     inkscape:cx="-594.48351"
     inkscape:cy="-213.84362"
     inkscape:document-units="px"
     inkscape:current-layer="layer1"
     showgrid="false"
     fit-margin-top="0"
     fit-margin-left="0"
     fit-margin-right="0"
     fit-margin-bottom="0"
     inkscape:window-width="1600"
     inkscape:window-height="841"
     inkscape:window-x="1024"
     inkscape:window-y="30"
     inkscape:window-maximized="1" />
  <metadata
     id="metadata12819">
    <rdf:RDF>
      <cc:Work
         rdf:about="">
        <dc:format>image/svg+xml</dc:format>
        <dc:type
           rdf:resource="http://purl.org/dc/dcmitype/StillImage" />
        <dc:title></dc:title>
      </cc:Work>
    </rdf:RDF>
  </metadata>
  <g
     inkscape:label="Camada 1"
     inkscape:groupmode="layer"
     id="layer1"
     transform="translate(-340.91209,-240.71436)">
    <g
       transform="matrix(0.06636814,0,0,0.06636814,575.98439,365.26422)"
       id="g11362"
       style="fill:#f1f1f1;fill-opacity:1">
      <path
         d="m -3455.9517,-1856.8949 0,1057.36724 c 0,5.11344 2.11,10.24402 5.7784,13.92859 3.6693,3.68458 8.7504,5.71452 13.9448,5.71452 l 1380.5597,0 c 10.8927,0 19.7241,-8.79896 19.7241,-19.64311 0,-10.9575 -8.8314,-19.77171 -19.7241,-19.77171 l -1360.8357,0 0,-1037.59553 c 0,-10.8279 -8.8313,-19.6421 -19.724,-19.6421 -10.8928,0 -19.7232,8.8142 -19.7232,19.6421"
         style="fill:#f1f1f1;fill-opacity:1;fill-rule:nonzero;stroke:none"
         id="path1090"
         inkscape:connector-curvature="0" />
      <path
         d="m -3333.2758,-1745.4356 -86.3941,-122.774 c -3.7017,-5.2268 -9.7401,-8.4417 -16.1528,-8.4417 -6.3795,0 -12.435,3.2149 -16.1034,8.4417 l -86.4274,122.774 c -6.266,8.9285 -4.1227,21.1843 4.7896,27.499 8.8952,6.2013 21.2006,4.0589 27.4828,-4.8858 l 70.2584,-99.7711 70.2916,99.7711 c 6.2661,8.9447 18.5705,11.0871 27.4829,4.8858 8.8961,-6.3147 11.0384,-18.5705 4.7724,-27.499"
         style="fill:#f1f1f1;fill-opacity:1;fill-rule:nonzero;stroke:none"
         id="path1092"
         inkscape:connector-curvature="0" />
      <path
         d="m -2150.4236,-707.95444 106.8649,-75.14506 c 5.2116,-3.68457 8.3608,-9.7725 8.3608,-16.1843 0,-6.31464 -3.1492,-12.38637 -8.3608,-16.07094 l -106.8649,-75.25842 c -8.9123,-6.20128 -21.2168,-4.05894 -27.4828,4.75622 -6.2823,8.92851 -4.1399,21.31488 4.7724,27.49902 l 83.943,59.07412 -83.943,59.05697 c -8.9123,6.29845 -11.0547,18.57146 -4.7724,27.49998 6.266,8.92851 18.5705,11.07086 27.4828,4.77241"
         style="fill:#f1f1f1;fill-opacity:1;fill-rule:nonzero;stroke:none"
         id="path1094"
         inkscape:connector-curvature="0" />
      <path
         d="m -3422.3809,-1265.6879 348.8245,-240.2877 260.3853,130.1269 c 6.4118,3.2149 14.1067,2.7443 19.9993,-1.428 l 441.1608,-303.858 c 8.9609,-6.2013 11.2337,-18.4581 5.0486,-27.3866 -6.1841,-9.0581 -18.4571,-11.3148 -27.4342,-5.1297 l -431.5673,297.3329 -260.3843,-130.1602 c -6.4128,-3.214 -14.0906,-2.7272 -20.0004,1.3145 l -358.4188,246.9606 c -8.9609,6.1842 -11.2167,18.4572 -5.0487,27.3857 6.1851,9.0419 18.4581,11.3147 27.4352,5.1296"
         style="fill:#f1f1f1;fill-opacity:1;fill-rule:nonzero;stroke:none"
         id="path1096"
         inkscape:connector-curvature="0" />
      <path
         d="m -2473.5019,-1671.849 7.7921,18.0837 100.2417,-43.1003 -58.3273,61.688 -33.5545,-47.9871 -16.152,11.3157 7.7921,18.0837 -7.7921,-18.0837 -16.169,11.2976 47.4346,67.8731 c 3.393,4.7724 8.8151,7.873 14.724,8.3436 5.9088,0.3524 11.7043,-1.7861 15.7623,-6.2013 l 140.55,-148.7145 c 6.428,-6.7862 7.1748,-17.1426 1.8175,-24.8861 -5.3563,-7.614 -15.3565,-10.4708 -23.944,-6.7862 l -187.9836,80.9729 c -5.4383,2.3862 -9.5458,7.0291 -11.169,12.7436 -1.607,5.7136 -0.5811,11.7853 2.8082,16.6549 l 16.169,-11.2976"
         style="fill:#f1f1f1;fill-opacity:1;fill-rule:nonzero;stroke:none"
         id="path1098"
         inkscape:connector-curvature="0" />
      <path
         d="m -2940.7499,-850.01334 0,-19.64311 -169.4455,0 0,-395.56085 149.7214,0 0,415.20396 19.7241,0 0,-19.64311 0,19.64311 19.7231,0 0,-434.86226 c 0,-5.2278 -2.1099,-10.3574 -5.7793,-13.9286 -3.6683,-3.6846 -8.7656,-5.8279 -13.9438,-5.8279 l -189.1686,0 c -5.1954,0 -10.2764,2.1433 -13.9448,5.8279 -3.6694,3.5712 -5.7631,8.7008 -5.7631,13.9286 l 0,434.86226 c 0,5.2268 2.0937,10.35643 5.7631,14.04195 3.6684,3.57122 8.7494,5.71357 13.9448,5.71357 l 189.1686,0 c 5.1782,0 10.2755,-2.14235 13.9438,-5.71357 3.6694,-3.68552 5.7793,-8.81515 5.7793,-14.04195 l -19.7231,0"
         style="fill:#f1f1f1;fill-opacity:1;fill-rule:nonzero;stroke:none"
         id="path1100"
         inkscape:connector-curvature="0" />
      <path
         d="m -2677.9136,-850.01334 0,-19.64311 -169.4456,0 0,-292.57575 149.7215,0 0,312.21886 19.7241,0 0,-19.64311 0,19.64311 19.7069,0 0,-331.86096 c 0,-5.2278 -2.0776,-10.2431 -5.7631,-13.9286 -3.6684,-3.6846 -8.7494,-5.8279 -13.9438,-5.8279 l -189.1525,0 c -5.2115,0 -10.2926,2.1433 -13.961,5.8279 -3.6693,3.6855 -5.7793,8.7008 -5.7793,13.9286 l 0,331.86096 c 0,5.2268 2.11,10.35643 5.7793,14.04195 3.6684,3.57122 8.7495,5.71357 13.961,5.71357 l 189.1525,0 c 5.1944,0 10.2754,-2.14235 13.9438,-5.71357 3.6855,-3.68552 5.7631,-8.81515 5.7631,-14.04195 l -19.7069,0"
         style="fill:#f1f1f1;fill-opacity:1;fill-rule:nonzero;stroke:none"
         id="path1102"
         inkscape:connector-curvature="0" />
      <path
         d="m -2415.0774,-851.91278 0,-19.65835 -169.4455,0 0,-529.51997 149.7214,0 0,549.17832 19.7241,0 0,-19.65835 0,19.65835 19.7231,0 0,-568.93482 c 0,-5.1296 -2.1099,-10.243 -5.7793,-13.9286 -3.6683,-3.7007 -8.7494,-5.844 -13.9438,-5.844 l -189.1686,0 c -5.1954,0 -10.2602,2.1433 -13.9448,5.844 -3.6693,3.6856 -5.7793,8.6856 -5.7793,13.9286 l 0,568.93482 c 0,5.2268 2.11,10.22688 5.7793,13.9286 3.6846,3.68457 8.7494,5.82787 13.9448,5.82787 l 189.1686,0 c 5.1944,0 10.2755,-2.1433 13.9438,-5.82787 3.6694,-3.70172 5.7793,-8.7018 5.7793,-13.9286 l -19.7231,0"
         style="fill:#f1f1f1;fill-opacity:1;fill-rule:nonzero;stroke:none"
         id="path1104"
         inkscape:connector-curvature="0" />
      <path
         d="m -3203.5861,-850.01334 0,-19.64311 -169.4456,0 0,-236.71655 149.7215,0 0,256.35966 19.7241,0 0,-19.64311 0,19.64311 19.7231,0 0,-276.13136 c 0,-5.244 -2.11,-10.2431 -5.7784,-13.9286 -3.6855,-3.7008 -8.7503,-5.8441 -13.9447,-5.8441 l -189.1687,0 c -5.1953,0 -10.2764,2.1433 -13.9448,5.8441 -3.6855,3.6855 -5.7793,8.6846 -5.7793,13.9286 l 0,276.13136 c 0,5.2268 2.1109,10.35643 5.7793,14.04195 3.6684,3.57122 8.7495,5.71357 13.9448,5.71357 l 189.1687,0 c 5.1944,0 10.2592,-2.14235 13.9447,-5.71357 3.6684,-3.68552 5.7784,-8.81515 5.7784,-14.04195 l -19.7231,0"
         style="fill:#f1f1f1;fill-opacity:1;fill-rule:nonzero;stroke:none"
         id="path1106"
         inkscape:connector-curvature="0" />
    </g>
  </g>
</svg>
