<?xml version="1.0" encoding="UTF-8" standalone="no"?>
<!-- Created with Inkscape (http://www.inkscape.org/) -->

<svg
   xmlns:dc="http://purl.org/dc/elements/1.1/"
   xmlns:cc="http://creativecommons.org/ns#"
   xmlns:rdf="http://www.w3.org/1999/02/22-rdf-syntax-ns#"
   xmlns:svg="http://www.w3.org/2000/svg"
   xmlns="http://www.w3.org/2000/svg"
   xmlns:sodipodi="http://sodipodi.sourceforge.net/DTD/sodipodi-0.dtd"
   xmlns:inkscape="http://www.inkscape.org/namespaces/inkscape"
   width="28.222221mm"
   height="28.069925mm"
   viewBox="0 0 99.999996 99.460364"
   id="svg14659"
   version="1.1"
   inkscape:version="0.91 r13725"
   sodipodi:docname="6-aprovacao.svg">
  <defs
     id="defs14661" />
  <sodipodi:namedview
     id="base"
     pagecolor="#ffffff"
     bordercolor="#666666"
     borderopacity="1.0"
     inkscape:pageopacity="0.0"
     inkscape:pageshadow="2"
     inkscape:zoom="2.8284271"
     inkscape:cx="40.823786"
     inkscape:cy="77.829553"
     inkscape:document-units="px"
     inkscape:current-layer="layer1"
     showgrid="false"
     fit-margin-top="0"
     fit-margin-left="0"
     fit-margin-right="0"
     fit-margin-bottom="0"
     inkscape:window-width="1600"
     inkscape:window-height="841"
     inkscape:window-x="1024"
     inkscape:window-y="30"
     inkscape:window-maximized="1" />
  <metadata
     id="metadata14664">
    <rdf:RDF>
      <cc:Work
         rdf:about="">
        <dc:format>image/svg+xml</dc:format>
        <dc:type
           rdf:resource="http://purl.org/dc/dcmitype/StillImage" />
        <dc:title></dc:title>
      </cc:Work>
    </rdf:RDF>
  </metadata>
  <g
     inkscape:label="Camada 1"
     inkscape:groupmode="layer"
     id="layer1"
     transform="translate(-117.97581,-764.90982)">
    <g
       transform="matrix(0.18674938,0,0,0.18674938,539.33948,846.67136)"
       id="g11543"
       style="fill:#f1f1f1;fill-opacity:1">
      <path
         d="m -2142.3131,81.589967 0,-10.988097 -65.2292,0 c -7.4071,0 -14.0157,-2.992444 -18.881,-7.8545 -4.8471,-4.860457 -7.8156,-11.45257 -7.8247,-18.842596 l 0,-227.243044 c 0,-7.39323 2.9776,-13.98534 7.8247,-18.90972 4.8653,-4.7944 11.4739,-7.79004 18.881,-7.79004 l 65.2292,0 c 7.407,0 14.0061,2.99564 18.8713,7.79004 4.8562,4.92438 7.8156,11.51649 7.8247,18.90972 l 0,227.243044 c 0,7.390026 -2.9685,13.982139 -7.8247,18.842596 -4.8652,4.862056 -11.4643,7.8545 -18.8713,7.8545 l 0,22.040645 c 26.9229,0 48.7446,-21.838769 48.7446,-48.737741 l 0,-227.243044 c 0,-26.90217 -21.8217,-48.73775 -48.7446,-48.73775 l -65.2292,0 c -26.9326,0 -48.7543,21.83558 -48.7633,48.73775 l 0,227.243044 c 0,26.898972 21.8307,48.737741 48.7633,48.737741 l 65.2292,0 0,-11.052548"
         style="fill:#f1f1f1;fill-opacity:1;fill-rule:nonzero;stroke:none"
         id="path1470"
         inkscape:connector-curvature="0" />
      <path
         d="m -2161.6117,38.976669 0,-11.052015 -26.6417,0 c -5.6733,0 -10.702,-2.262177 -14.4327,-5.925231 -3.7126,-3.730701 -5.9732,-8.790371 -5.9732,-14.4487431 l 0,-154.5369899 c 0,-5.65997 2.2606,-10.71964 5.9732,-14.44661 3.7307,-3.72964 8.7594,-5.99182 14.4327,-5.99182 l 26.6417,0 c 5.6733,0 10.7021,2.26218 14.4328,5.99182 3.7126,3.72697 5.9732,8.78664 5.9822,14.44661 l 0,154.5369899 c 0,5.6583721 -2.2696,10.7180421 -5.9822,14.4487431 -3.7307,3.663054 -8.7595,5.925231 -14.4328,5.925231 l 0,22.104563 c 23.4559,0 42.4636,-19.041276 42.4727,-42.4785371 l 0,-154.5369899 c 0,-23.43513 -19.0168,-42.47907 -42.4727,-42.47907 l -26.6417,0 c -23.4559,0 -42.4636,19.04394 -42.4636,42.47907 l 0,154.5369899 c 0,23.4372611 19.0077,42.4785371 42.4636,42.4785371 l 26.6417,0 0,-11.052548"
         style="fill:#f1f1f1;fill-opacity:1;fill-rule:nonzero;stroke:none"
         id="path1472"
         inkscape:connector-curvature="0" />
      <path
         d="m -2101.3931,43.636317 c 9.3768,0 18.6902,2.598813 28.294,6.992134 14.3965,6.523933 28.9837,16.980975 44.0519,26.298672 7.5616,4.662844 15.2771,9.056165 23.4101,12.318664 8.1337,3.261434 16.7658,5.52734 25.8705,5.52734 l 147.0883,0 c 19.9697,0 37.616,-12.785268 43.9434,-31.692316 0,0 43.3435,-130.634724 64.5112,-194.419911 2.2701,-6.65923 3.3951,-13.25081 3.3951,-19.57712 0,-8.11923 -1.924,-15.77772 -5.3287,-22.63562 -5.9907,-12.05181 -16.1117,-21.3743 -28.3568,-29.03012 -18.3813,-11.45257 -41.9459,-19.50894 -67.3806,-26.09999 -25.4342,-6.59158 -52.7385,-11.58414 -78.3005,-16.0451 l -1.8611,10.85386 10.7116,2.39641 c 0.075,-0.0693 4.5926,-20.90929 9.7939,-46.40739 5.1923,-25.56893 11.0473,-55.66222 13.8431,-74.83773 1.4702,-10.58754 2.9318,-21.3743 2.9318,-31.82654 0,-6.65923 -0.5993,-13.25134 -2.3325,-19.64424 -1.3348,-4.79388 -3.2593,-9.45299 -6.1905,-13.71475 -4.3939,-6.45788 -10.9205,-11.71996 -18.972,-15.04958 -8.1241,-3.26143 -17.6463,-4.85726 -29.0291,-4.85726 -13.5161,0 -23.637,3.46065 -30.3,7.39003 -6.6533,3.86067 -9.8487,7.92108 -10.5843,8.9214 -1.3343,1.86429 -2.0694,4.127 -2.0694,6.46002 l 0,42.81198 c 0,20.70421 -5.5912,40.94662 -16.1122,58.72178 -11.4371,19.24369 -26.1335,46.94324 -37.625,79.16767 l 10.3931,3.66252 -8.9134,-6.46054 c -10.2482,14.05298 -18.9171,26.36685 -31.1895,35.08957 -6.1457,4.3294 -13.2619,7.92534 -22.4209,10.52043 -9.1499,2.59615 -20.3607,4.19464 -34.4664,4.19464 -6.0909,0 -11.0291,4.92864 -11.0291,11.05255 0,6.05999 4.9382,10.9849 11.0291,10.9849 15.7309,0 29.0381,-1.73059 40.5024,-4.99202 17.2106,-4.86206 30.1641,-13.31473 40.276,-23.03724 10.1306,-9.71932 17.601,-20.57319 25.1077,-30.82729 0.6088,-0.86556 1.1345,-1.79823 1.4797,-2.79802 10.8384,-30.35962 24.917,-56.92409 35.8369,-75.30221 12.5812,-21.17189 19.1803,-45.34368 19.1803,-69.97674 l 0,-42.81198 -11.0558,0 8.9225,6.45682 -5.7276,-4.12753 5.5284,4.39332 0.1971,-0.26633 -5.7271,-4.12752 5.5279,4.39385 -1.4707,-1.19847 1.4707,1.26558 0,-0.0692 -1.4707,-1.19794 1.4707,1.26559 c 0,0 0.3249,-0.46341 1.1979,-1.13136 2.4603,-1.99958 8.6508,-6.25761 22.0401,-6.32578 8.3147,0 14.5777,1.00032 19.0349,2.59615 3.3312,1.13082 5.7271,2.59881 7.5978,4.12752 2.7229,2.39641 4.52,5.1939 5.8543,9.25431 1.3343,3.99543 1.9975,9.1904 1.9975,15.18328 0,8.38928 -1.2619,18.30994 -2.7325,28.69614 -2.5962,18.1118 -8.4511,48.20455 -13.6434,73.57215 -2.5961,12.65104 -4.992,24.16806 -6.7892,32.55734 -1.7338,8.3259 -2.8688,13.51607 -2.8688,13.51607 -0.6595,2.92906 -0.069,5.99288 1.5979,8.52458 1.6699,2.46458 4.3294,4.19464 7.2611,4.65911 38.6786,6.79346 80.8243,14.71507 112.1863,26.76741 15.6494,5.99234 28.4932,13.11551 36.7541,20.77506 4.1936,3.79409 7.1887,7.72294 9.1223,11.71517 1.9969,3.99649 2.9956,8.05584 2.9956,12.84972 0,3.7307 -0.6589,7.92534 -2.1967,12.65157 -21.1772,63.785186 -64.5847,194.420975 -64.5847,194.420975 -3.2582,9.853014 -12.5173,16.575626 -22.9653,16.575626 l -147.0878,0 c -7.2441,0 -15.2414,-2.460324 -24.0552,-6.856841 -13.2348,-6.524465 -27.7309,-17.175925 -43.6072,-26.565531 -7.9605,-4.726229 -16.3391,-9.123279 -25.2893,-12.385778 -8.9411,-3.261434 -18.5267,-5.393111 -28.6748,-5.393111 -6.0909,0 -11.0291,4.996285 -11.0291,11.056277 0,6.123378 4.9382,11.048819 11.0291,11.048819"
         style="fill:#f1f1f1;fill-opacity:1;fill-rule:nonzero;stroke:none"
         id="path1474"
         inkscape:connector-curvature="0" />
    </g>
  </g>
</svg>
