<?xml version="1.0" encoding="UTF-8" standalone="no"?>
<!-- Created with Inkscape (http://www.inkscape.org/) -->

<svg
   xmlns:dc="http://purl.org/dc/elements/1.1/"
   xmlns:cc="http://creativecommons.org/ns#"
   xmlns:rdf="http://www.w3.org/1999/02/22-rdf-syntax-ns#"
   xmlns:svg="http://www.w3.org/2000/svg"
   xmlns="http://www.w3.org/2000/svg"
   xmlns:sodipodi="http://sodipodi.sourceforge.net/DTD/sodipodi-0.dtd"
   xmlns:inkscape="http://www.inkscape.org/namespaces/inkscape"
   width="28.222219mm"
   height="18.56448mm"
   viewBox="0 0 99.99999 65.779653"
   id="svg12214"
   version="1.1"
   inkscape:version="0.91 r13725"
   sodipodi:docname="reuniao.svg">
  <defs
     id="defs12216" />
  <sodipodi:namedview
     id="base"
     pagecolor="#ffffff"
     bordercolor="#666666"
     borderopacity="1.0"
     inkscape:pageopacity="0.0"
     inkscape:pageshadow="2"
     inkscape:zoom="2.8"
     inkscape:cx="80.1025"
     inkscape:cy="33.894275"
     inkscape:document-units="px"
     inkscape:current-layer="layer1"
     showgrid="false"
     fit-margin-top="0"
     fit-margin-left="0"
     fit-margin-right="0"
     fit-margin-bottom="0"
     inkscape:window-width="1600"
     inkscape:window-height="841"
     inkscape:window-x="1024"
     inkscape:window-y="30"
     inkscape:window-maximized="1" />
  <metadata
     id="metadata12219">
    <rdf:RDF>
      <cc:Work
         rdf:about="">
        <dc:format>image/svg+xml</dc:format>
        <dc:type
           rdf:resource="http://purl.org/dc/dcmitype/StillImage" />
        <dc:title></dc:title>
      </cc:Work>
    </rdf:RDF>
  </metadata>
  <g
     inkscape:label="Camada 1"
     inkscape:groupmode="layer"
     id="layer1"
     transform="translate(975.02944,-1034.787)">
    <g
       transform="matrix(0.04701011,0,0,0.04701011,-706.90254,1075.1546)"
       id="g11373"
       style="fill:#f1f1f1;fill-opacity:1">
      <path
         d="m -4282.6452,-425.58404 -27.3198,0 c 0.1712,128.89726 -46.2884,246.09999 -111.6334,330.213136 -32.6166,42.04413 -69.8356,75.71711 -107.7066,98.5016602 -37.8698,22.8517298 -76.0544,34.6819998 -110.714,34.6372098 -27.6123,0.17124 -63.2374,-11.40347 -100.2312,-34.4567398 -55.5815,-34.3698102 -113.7673,-93.6541702 -157.2275,-168.3174662 -43.5945,-74.70664 -72.6637,-164.49862 -72.6413,-260.5778 0.1317,-130.2664 38.1609,-223.9875 97.1106,-285.6745 59.0381,-61.6212 140.3904,-92.756 232.9894,-92.8911 92.6215,0.1647 173.9501,31.2699 233.0566,92.8911 58.9485,61.687 96.9974,155.4081 96.9974,285.6745 l 54.6621,0 c 0,-140.7056 -42.0007,-249.8928 -112.3078,-323.366 -70.3085,-73.5851 -167.6207,-109.8608 -272.4083,-109.7488 -104.7665,-0.1646 -202.1011,36.1637 -272.4082,109.7488 -70.3757,73.4732 -112.3539,182.6604 -112.2196,323.366 0.1318,142.92734 57.2216,271.08422 132.5119,364.108736 37.7354,46.53596 80.0957,84.4044 123.1277,111.16311 43.1006,26.60195 86.9652,42.49463 128.9882,42.63031 47.0063,0 94.4156,-15.66875 138.8861,-42.47224 66.8506,-40.3172098 127.5958,-105.9784 172.559,-188.047306 44.6273,-82.09381 73.271,-180.8655 73.271,-287.38261 l -27.3423,0"
         style="fill:#f1f1f1;fill-opacity:1;fill-rule:nonzero;stroke:none"
         id="path138"
         inkscape:connector-curvature="0" />
      <path
         d="m -4434.4614,43.133146 -21.8875,-16.31947 c -46.4451,62.22579 -96.8182,113.565784 -135.3611,149.146154 -19.2622,17.77766 -35.5593,31.6286 -46.9403,41.01272 -5.7011,4.66835 -10.1916,8.2144 -13.2213,10.57228 -1.5043,1.18553 -2.649,2.04175 -3.3906,2.60421 l -0.8299,0.63229 -0.1844,0.17124 16.2523,21.8875 16.2061,-21.8875 -0.1712,-0.17124 c -5.2967,-3.92937 -109.5692,-83.30582 -199.7432,-203.963704 -7.8561,-10.5051 -21.9086,-13.91943 -33.6941,-8.23942 -119.3577,57.75897 -219.2965,150.740024 -290.1648,229.173314 -70.8024,78.47939 -112.3091,142.63627 -112.8703,143.46614 -4.4444,6.86948 -5.5667,15.26566 -3.0744,23.07698 2.4685,7.81264 8.2381,14.00637 15.8255,17.06108 1.8626,0.63229 271.8247,109.07526 607.6719,109.21094 335.7998,-0.17124 605.8528,-108.58392 607.6482,-109.21094 7.5874,-3.05471 13.3556,-9.24844 15.8255,-17.06108 2.4698,-7.81132 1.4661,-16.2075 -2.9849,-23.07698 -0.6587,-0.8167 -42.1364,-64.98675 -112.9362,-143.46614 -70.8011,-78.43329 -170.7649,-171.414344 -290.1437,-229.173314 -11.8527,-5.68001 -25.838,-2.26568 -33.7402,8.23942 l 21.8875,16.31815 -11.8513,24.5589 c 109.344,52.731014 205.4917,141.200464 273.3303,216.580354 34.0985,37.69061 61.0811,72.03539 79.5319,96.86432 9.2273,12.41249 16.2984,22.42625 21.08,29.31681 2.3118,3.4578 4.1085,6.0844 5.2756,7.85743 l 1.3041,1.97456 0.3293,0.55325 23.0546,-14.81648 -10.214,-25.32027 -0.6455,0.25028 c -14.1644,5.65629 -272.6782,105.1696 -586.7499,105.05764 -162.0315,0 -309.381,-26.37671 -415.9416,-52.82059 -53.2698,-13.22129 -96.3703,-26.4215 -126.002,-36.29959 -14.8388,-4.91467 -26.2871,-9.0008 -34.0088,-11.85265 -3.8385,-1.41605 -6.7576,-2.51333 -8.6649,-3.25494 l -2.1551,-0.8167 -0.6059,-0.25028 -10.1468,25.32027 22.9189,14.81648 0.3557,-0.56642 c 4.3324,-6.62184 46.0854,-69.34291 113.6553,-143.10653 67.479,-73.78865 160.9527,-158.41699 266.9087,-209.486944 l -11.8526,-24.5589 -21.8428,16.34318 c 98.4358,131.456734 209.8901,214.246184 211.1256,215.210414 9.6292,7.18299 22.8966,7.18299 32.4598,0 1.3173,-0.97477 112.7807,-83.75368 211.26,-215.210414 l -21.9086,-16.34318 -11.8526,24.5589 11.8526,-24.5589"
         style="fill:#f1f1f1;fill-opacity:1;fill-rule:nonzero;stroke:none"
         id="path140"
         inkscape:connector-curvature="0" />
      <path
         d="m -3750.8037,-322.34426 -27.3409,0 c 0.1844,76.41262 -27.4766,146.06904 -66.0208,195.81502 -19.2596,24.85001 -41.3275,44.603556 -63.2137,57.757656 -21.9086,13.245 -43.4826,19.75619 -62.4063,19.71008 -14.0077,0.15807 -34.2552,-6.10547 -55.8279,-19.50722 -32.2793,-19.9788 -67.0074,-55.132366 -92.6886,-99.490786 -25.8603,-44.33483 -43.1453,-97.58221 -43.1453,-154.28475 0.1712,-77.78388 22.7173,-132.22078 56.6367,-167.71158 33.9193,-35.4222 80.6792,-53.5375 135.0251,-53.6495 54.5054,0.1647 101.0848,18.2273 135.1833,53.6495 33.9193,35.4908 56.4575,89.9277 56.4575,167.71158 l 54.6832,0 c 0,-88.22178 -26.3543,-158.12458 -71.7891,-205.42448 -45.278,-47.3878 -107.8634,-70.5994 -174.5349,-70.4858 -66.5358,-0.1647 -129.2556,23.098 -174.3768,70.4858 -45.4585,47.2999 -71.7904,117.2027 -71.7904,205.42448 0.1713,90.4427 36.0533,171.07698 83.643,229.688216 23.7054,29.34053 50.3969,53.31588 78.0526,70.42043 27.4991,16.9939002 55.986,27.5885802 84.4716,27.7229402 31.2703,0 62.0691,-10.36943 90.556,-27.5437902 42.8095,-25.88274 81.1732,-67.45661 109.5021,-119.199676 28.1497,-51.74163 46.2659,-113.94634 46.2659,-181.08812 l -27.3423,0"
         style="fill:#f1f1f1;fill-opacity:1;fill-rule:nonzero;stroke:none"
         id="path142"
         inkscape:connector-curvature="0" />
      <path
         d="m -4240.9817,72.517146 19.2622,19.26221 c 38.0252,-38.11871 85.7954,-77.31099 137.989,-102.43103 l -11.854,-24.58261 -21.9099,16.34318 c 61.4196,81.89108 130.2435,133.050614 131.57,134.014844 9.5396,7.18431 22.8741,7.18431 32.4374,0 1.3173,-0.97477 70.1504,-52.123764 131.5687,-134.014844 l -21.9099,-16.34318 -11.8526,24.58261 c 65.0328,31.31377 123.1514,84.65073 164.1641,130.243544 20.5835,22.78455 37.0399,43.57215 48.0825,58.56777 5.5904,7.4965 9.878,13.53479 12.6838,17.64331 1.4661,2.06677 2.4475,3.63694 3.2773,4.66967 l 0.6587,1.13284 0.1844,0.30296 22.8741,-14.81516 -10.0335,-25.29919 -0.3293,0.17124 c -7.9023,3.23123 -165.4657,63.7301 -355.6482,63.61813 -38.701,0 -76.0754,-2.46985 -111.1631,-6.48748 l -3.1193,27.09461 20.9206,-17.51026 c 0,-0.15808 -23.2113,-27.72294 -54.5027,-63.41527 -31.2927,-35.71473 -70.8024,-79.376444 -104.2278,-112.151054 l -19.1041,19.46243 19.2622,19.2609 -19.2622,-19.2609 -19.1028,19.48483 c 31.6299,30.888304 70.6443,74.034974 101.422,109.210944 15.4896,17.57613 28.9796,33.22248 38.5429,44.4468 4.7816,5.61151 8.5516,10.12442 11.2019,13.2226 2.6253,3.09687 3.9491,4.73685 3.9491,4.73685 4.4458,5.36386 10.8661,8.82034 17.7803,9.60806 36.8832,4.21916 76.3902,6.84577 117.403,6.84577 208.1183,-0.17125 374.4362,-67.02982 376.2316,-67.65946 7.5874,-3.05208 13.3332,-9.27084 15.8031,-17.05977 2.4922,-7.79024 1.4819,-16.1851 -2.9612,-23.05459 -0.6586,-0.85621 -26.3319,-40.56353 -70.3085,-89.254534 -43.9541,-48.62118 -105.8664,-106.46973 -180.9552,-142.81542 -11.6959,-5.70108 -25.8603,-2.267 -33.5821,8.21703 -28.151,37.44296 -58.4545,68.48934 -81.6658,89.95005 -11.6959,10.72904 -21.574,19.08043 -28.3315,24.69193 -3.4552,2.82947 -6.1055,4.93971 -7.8996,6.33073 l -1.9759,1.53197 -0.5005,0.32931 0,0.15807 16.139,21.86511 16.2984,-21.86511 0,-0.15807 c -2.8058,-2.04174 -66.0419,-50.21506 -120.3681,-122.8353 -7.7428,-10.48403 -21.8862,-13.91943 -33.5808,-8.21704 -60.2749,29.1166 -111.9719,72.12627 -152.8055,113.02703 -5.0964,5.16364 -8.0576,12.12269 -7.9022,19.41765 0,7.27388 2.9639,14.21054 8.059,19.32807 l 19.1028,-19.48614"
         style="fill:#f1f1f1;fill-opacity:1;fill-rule:nonzero;stroke:none"
         id="path144"
         inkscape:connector-curvature="0" />
      <path
         d="m -5529.2356,-322.34426 -27.2527,0 c 0,89.56672 31.8315,170.15622 77.6258,229.240356 22.9203,29.54075 49.4537,53.78482 78.0078,71.04744 28.5318,17.1743602 59.3305,27.4990002 90.556,27.5437902 28.5541,-0.15807 57.0174,-10.72904 84.5849,-27.7229402 41.259,-25.67988 80.9703,-66.7387 111.1407,-118.323696 30.0795,-51.5862 50.4627,-114.01484 50.4851,-181.78495 0.1317,-88.22178 -26.3543,-158.12458 -71.6995,-205.42448 -45.2332,-47.3878 -107.9529,-70.5994 -174.5112,-70.4858 -66.5371,-0.1647 -129.2793,23.098 -174.5125,70.4858 -45.3452,47.2999 -71.789,117.2027 -71.6771,205.42448 l 54.5265,0 c 0.1317,-77.78388 22.6501,-132.22078 56.5694,-167.71158 33.9865,-35.4222 80.724,-53.5375 135.0937,-53.6495 54.3697,0.1647 101.1283,18.2273 135.0924,53.6495 33.9193,35.4908 56.4799,89.9277 56.5695,167.71158 0.1317,75.53796 -30.6868,145.19438 -71.3847,195.36584 -20.2712,25.02915 -42.9214,45.076446 -64.4269,58.409696 -21.4831,13.40175 -41.7306,19.64158 -55.8503,19.50722 -18.8789,0 -40.4739,-6.46508 -62.3838,-19.71008 -32.8642,-19.72984 -65.7284,-54.390746 -89.7472,-98.591096 -24.1097,-44.20047 -39.5321,-97.64939 -39.5321,-154.98158 l -27.2738,0"
         style="fill:#f1f1f1;fill-opacity:1;fill-rule:nonzero;stroke:none"
         id="path146"
         inkscape:connector-curvature="0" />
      <path
         d="m -5039.0799,72.517146 19.3281,-19.25958 c -40.8784,-40.90076 -92.5767,-83.91044 -152.7607,-113.02703 -11.7855,-5.70239 -25.8604,-2.26699 -33.6941,8.21703 -28.0154,37.44296 -58.3873,68.48802 -81.6447,89.95005 -11.6051,10.72904 -21.437,19.08043 -28.2841,24.69193 -3.4565,2.82815 -6.1055,4.93971 -7.9246,6.33073 l -1.9746,1.53197 -0.4479,0.32931 -0.1317,0.15807 16.2747,21.86379 16.2747,-21.86379 0,-0.15807 c -2.8058,-2.04174 -66.0419,-50.21638 -120.2772,-122.83662 -7.8561,-10.48271 -21.931,-13.91811 -33.6941,-8.21572 -75.0677,36.34437 -137.0234,94.19292 -181,142.81542 -43.9304,48.689684 -69.634,88.400964 -70.1728,89.253224 -4.4444,6.86948 -5.5891,15.26566 -3.0981,23.05591 2.4698,7.7876 8.2381,14.00636 15.8492,17.05976 1.8626,0.61911 168.1804,67.52378 376.1855,67.65946 41.0799,0 80.5211,-2.6266 117.4042,-6.84709 6.9143,-0.79035 13.3346,-4.24287 17.8014,-9.60805 0,0 1.391,-1.64657 4.0176,-4.73685 9.1589,-10.84232 33.0223,-38.96966 61.5988,-71.20551 28.5528,-32.21346 61.9334,-68.6474 89.4996,-95.673524 5.2084,-5.11753 8.1274,-12.05551 8.1946,-19.32807 0,-7.29627 -2.8519,-14.25401 -7.9694,-19.41765 l -19.3281,19.25958 -19.0804,-19.46244 c -33.4253,32.77461 -72.8666,76.437654 -104.2278,112.151054 -31.3151,35.69233 -54.4368,63.30462 -54.5264,63.41659 l 20.9219,17.50895 -3.0981,-27.09461 c -35.0416,4.01762 -72.4622,6.48748 -111.2079,6.48748 -98.121,0 -187.5995,-16.00596 -252.2727,-32.033 -32.3478,-8.01418 -58.4769,-16.05075 -76.3902,-21.99815 -8.9798,-2.98753 -15.894,-5.45607 -20.5176,-7.16323 -2.3131,-0.85622 -4.0413,-1.49772 -5.186,-1.95217 l -1.2383,-0.47421 -0.2897,-0.17125 -10.1455,25.29919 22.8965,14.81648 0.1844,-0.30297 c 2.4251,-3.72651 27.7466,-41.73062 68.5789,-86.3131 40.7888,-44.627274 97.2687,-95.606334 160.3257,-125.955884 l -11.8527,-24.58129 -21.8427,16.34186 c 61.3511,81.8924 130.2673,133.050624 131.4791,134.016164 9.6529,7.18299 22.919,7.18299 32.5494,0 1.2119,-0.97476 70.1504,-52.123764 131.4791,-134.016164 l -21.819,-16.34186 -11.875,24.58129 c 52.1685,25.12005 99.894,64.31364 137.8757,102.43103 l 19.2833,-19.26089 -19.0805,-19.46244 19.0805,19.46244"
         style="fill:#f1f1f1;fill-opacity:1;fill-rule:nonzero;stroke:none"
         id="path148"
         inkscape:connector-curvature="0" />
    </g>
  </g>
</svg>
