<?xml version="1.0" encoding="UTF-8" standalone="no"?>
<!-- Created with Inkscape (http://www.inkscape.org/) -->

<svg
   xmlns:dc="http://purl.org/dc/elements/1.1/"
   xmlns:cc="http://creativecommons.org/ns#"
   xmlns:rdf="http://www.w3.org/1999/02/22-rdf-syntax-ns#"
   xmlns:svg="http://www.w3.org/2000/svg"
   xmlns="http://www.w3.org/2000/svg"
   xmlns:sodipodi="http://sodipodi.sourceforge.net/DTD/sodipodi-0.dtd"
   xmlns:inkscape="http://www.inkscape.org/namespaces/inkscape"
   width="28.222221mm"
   height="35.427353mm"
   viewBox="0 0 99.999997 125.52999"
   id="svg14044"
   version="1.1"
   inkscape:version="0.91 r13725"
   sodipodi:docname="aprovacao.svg">
  <defs
     id="defs14046" />
  <sodipodi:namedview
     id="base"
     pagecolor="#ffffff"
     bordercolor="#666666"
     borderopacity="1.0"
     inkscape:pageopacity="0.0"
     inkscape:pageshadow="2"
     inkscape:zoom="0.35"
     inkscape:cx="-255.43452"
     inkscape:cy="260.69503"
     inkscape:document-units="px"
     inkscape:current-layer="layer1"
     showgrid="false"
     fit-margin-top="0"
     fit-margin-left="0"
     fit-margin-right="0"
     fit-margin-bottom="0"
     inkscape:window-width="1600"
     inkscape:window-height="841"
     inkscape:window-x="1024"
     inkscape:window-y="30"
     inkscape:window-maximized="1" />
  <metadata
     id="metadata14049">
    <rdf:RDF>
      <cc:Work
         rdf:about="">
        <dc:format>image/svg+xml</dc:format>
        <dc:type
           rdf:resource="http://purl.org/dc/dcmitype/StillImage" />
        <dc:title></dc:title>
      </cc:Work>
    </rdf:RDF>
  </metadata>
  <g
     inkscape:label="Camada 1"
     inkscape:groupmode="layer"
     id="layer1"
     transform="translate(-1.8630906,-667.52724)">
    <g
       transform="matrix(0.81975141,0,0,0.81975141,372.70486,1272.4793)"
       id="g11424"
       style="fill:#f1f1f1;fill-opacity:1">
      <path
         d="m -360.59872,-707.09923 2.03137,0 0,-22.7165 21.16057,20.6885 -23.19194,0 0,2.028 2.03137,0 -2.03137,0 0,2.028 28.17322,0 c 0.82651,0 1.56782,-0.49425 1.87968,-1.26113 0.31187,-0.76687 0.13123,-1.636 -0.46012,-2.21537 l -28.17321,-27.55638 c -0.58283,-0.56237 -1.45707,-0.73275 -2.20689,-0.409 -0.74984,0.30675 -1.24234,1.05663 -1.24234,1.85763 l 0,27.55625 c 0,0.52825 0.21473,1.05662 0.59475,1.4315 0.37663,0.37487 0.9015,0.5965 1.43491,0.5965 l 0,-2.028"
         style="fill:#f1f1f1;fill-opacity:1;fill-rule:nonzero;stroke:none"
         id="path1598"
         inkscape:connector-curvature="0" />
      <path
         d="m -371.07762,-626.91836 36.03112,0 c 1.26448,0 2.43183,-0.51125 3.27198,-1.32925 0.84357,-0.818 1.38038,-1.99387 1.37867,-3.255 l 0,-75.59662 c 0,-0.54538 -0.21643,-1.07363 -0.61009,-1.4485 l -28.17321,-27.55638 c -0.37663,-0.35787 -0.89298,-0.57937 -1.41957,-0.57937 l -48.48342,0 c -1.26449,0 -2.43184,0.51125 -3.272,1.32925 -0.84355,0.818 -1.38036,1.99387 -1.37866,3.272 l 0,36.09412 c 0,1.10775 0.91002,2.028 2.03136,2.028 1.12134,0 2.02966,-0.92025 2.02966,-2.028 l 0,-36.09412 c 0.001,-0.13638 0.0511,-0.25563 0.15678,-0.35788 0.10912,-0.1025 0.25051,-0.1705 0.43286,-0.1705 l 47.6552,0 26.97007,26.3635 0,74.7445 c -0.001,0.13638 -0.0494,0.23863 -0.15678,0.35788 -0.10738,0.1025 -0.25052,0.1705 -0.43285,0.1705 l -36.03112,0 c -1.12133,0 -2.03136,0.90312 -2.03136,2.02787 0,1.12475 0.91003,2.028 2.03136,2.028"
         style="fill:#f1f1f1;fill-opacity:1;fill-rule:nonzero;stroke:none"
         id="path1600"
         inkscape:connector-curvature="0" />
      <path
         d="m -399.25083,-668.44886 2.02966,0 0,-22.7165 21.16229,20.68863 -23.19195,0 0,2.02787 2.02966,0 -2.02966,0 0,2.028 28.17321,0 c 0.82823,0 1.56783,-0.49425 1.87969,-1.26112 0.31186,-0.76688 0.12953,-1.636 -0.46012,-2.21538 l -28.17322,-27.55637 c -0.58282,-0.56238 -1.45535,-0.73275 -2.20688,-0.409 -0.75154,0.30675 -1.24404,1.05662 -1.24404,1.87462 l 0,27.53925 c 0,0.52838 0.21814,1.05663 0.59475,1.4315 0.38002,0.375 0.9015,0.5965 1.43661,0.5965 l 0,-2.028"
         style="fill:#f1f1f1;fill-opacity:1;fill-rule:nonzero;stroke:none"
         id="path1602"
         inkscape:connector-curvature="0" />
      <path
         d="m -399.25083,-695.98811 0,-2.045 -48.48342,0 c -1.26449,0 -2.43014,0.51125 -3.27199,1.32925 -0.84356,0.818 -1.37868,1.99388 -1.37696,3.272 l 0,100.57963 c -0.001,1.27812 0.5334,2.437 1.37696,3.255 0.84185,0.835 2.0075,1.32925 3.27199,1.32925 l 74.03563,0 c 1.26449,0 2.43184,-0.49425 3.27199,-1.32925 0.84186,-0.818 1.38038,-1.97688 1.37868,-3.255 l 0,-75.59663 c 0,-0.54525 -0.21814,-1.07362 -0.6101,-1.4485 l -28.17322,-27.55637 c -0.37661,-0.35788 -0.89297,-0.57938 -1.41956,-0.57938 l 0,2.045 -1.41956,1.4485 27.56141,26.94288 0,74.7445 c -0.001,0.13637 -0.0494,0.25562 -0.15679,0.35787 -0.109,0.1025 -0.2505,0.1705 -0.43285,0.1705 l -74.03563,0 c -0.18235,0 -0.3255,-0.0687 -0.43287,-0.1705 -0.10562,-0.1025 -0.15677,-0.2215 -0.15677,-0.35787 l 0,-100.57963 c 0,-0.13637 0.0511,-0.25562 0.15507,-0.35787 0.109,-0.1025 0.25222,-0.17038 0.43457,-0.17038 l 48.48342,0 0,-2.028 -1.41956,1.4485 1.41956,-1.4485"
         style="fill:#f1f1f1;fill-opacity:1;fill-rule:nonzero;stroke:none"
         id="path1604"
         inkscape:connector-curvature="0" />
      <path
         d="m -382.30975,-610.16648 -56.81337,0 c -1.12305,0 -2.03136,0.92025 -2.03136,2.028 0,1.12475 0.90831,2.045 2.03136,2.045 l 56.81337,0 c 1.12133,0 2.02966,-0.92025 2.02966,-2.045 0,-1.10775 -0.90833,-2.028 -2.02966,-2.028"
         style="fill:#f1f1f1;fill-opacity:1;fill-rule:nonzero;stroke:none"
         id="path1606"
         inkscape:connector-curvature="0" />
      <path
         d="m -382.30975,-621.83998 -56.81337,0 c -1.12305,0 -2.03136,0.92025 -2.03136,2.045 0,1.10775 0.90831,2.028 2.03136,2.028 l 56.81337,0 c 1.12133,0 2.02966,-0.92025 2.02966,-2.028 0,-1.12475 -0.90833,-2.045 -2.02966,-2.045"
         style="fill:#f1f1f1;fill-opacity:1;fill-rule:nonzero;stroke:none"
         id="path1608"
         inkscape:connector-curvature="0" />
      <path
         d="m -382.30975,-633.49648 -56.81337,0 c -1.12305,0 -2.03136,0.90325 -2.03136,2.028 0,1.10762 0.90831,2.02787 2.03136,2.02787 l 56.81337,0 c 1.12133,0 2.02966,-0.92025 2.02966,-2.02787 0,-1.12475 -0.90833,-2.028 -2.02966,-2.028"
         style="fill:#f1f1f1;fill-opacity:1;fill-rule:nonzero;stroke:none"
         id="path1610"
         inkscape:connector-curvature="0" />
      <path
         d="m -382.30975,-645.16998 -56.81337,0 c -1.12305,0 -2.03136,0.90325 -2.03136,2.028 0,1.12475 0.90831,2.02787 2.03136,2.02787 l 56.81337,0 c 1.12133,0 2.02966,-0.90312 2.02966,-2.02787 0,-1.12475 -0.90833,-2.028 -2.02966,-2.028"
         style="fill:#f1f1f1;fill-opacity:1;fill-rule:nonzero;stroke:none"
         id="path1612"
         inkscape:connector-curvature="0" />
      <path
         d="m -382.30975,-656.84348 -56.81337,0 c -1.12305,0 -2.03136,0.90325 -2.03136,2.028 0,1.12475 0.90831,2.02787 2.03136,2.02787 l 56.81337,0 c 1.12133,0 2.02966,-0.90312 2.02966,-2.02787 0,-1.12475 -0.90833,-2.028 -2.02966,-2.028"
         style="fill:#f1f1f1;fill-opacity:1;fill-rule:nonzero;stroke:none"
         id="path1614"
         inkscape:connector-curvature="0" />
      <path
         d="m -405.85787,-668.51698 -33.26525,0 c -1.12305,0 -2.03136,0.90325 -2.03136,2.028 0,1.12475 0.90831,2.02787 2.03136,2.02787 l 33.26525,0 c 1.12134,0 2.02965,-0.90312 2.02965,-2.02787 0,-1.12475 -0.90831,-2.028 -2.02965,-2.028"
         style="fill:#f1f1f1;fill-opacity:1;fill-rule:nonzero;stroke:none"
         id="path1616"
         inkscape:connector-curvature="0" />
      <path
         d="m -407.17859,-680.19048 -31.94453,0 c -1.12305,0 -2.03136,0.90312 -2.03136,2.02787 0,1.12475 0.90831,2.028 2.03136,2.028 l 31.94453,0 c 1.12134,0 2.02965,-0.90325 2.02965,-2.028 0,-1.12475 -0.90831,-2.02787 -2.02965,-2.02787"
         style="fill:#f1f1f1;fill-opacity:1;fill-rule:nonzero;stroke:none"
         id="path1618"
         inkscape:connector-curvature="0" />
      <path
         d="m -336.93983,-620.30623 c -0.001,6.69737 -2.71302,12.74712 -7.10466,17.14387 -4.39503,4.39675 -10.44651,7.10638 -17.15239,7.10638 -1.12134,0 -2.02966,0.90312 -2.02966,2.02787 0,1.12475 0.90832,2.028 2.02966,2.028 15.6408,0 28.31466,-12.66187 28.31636,-28.30612 0,-1.12475 -0.90832,-2.028 -2.02966,-2.028 -1.12134,0 -2.02965,0.90325 -2.02965,2.028"
         style="fill:#f1f1f1;fill-opacity:1;fill-rule:nonzero;stroke:none"
         id="path1620"
         inkscape:connector-curvature="0" />
      <path
         d="m -356.04349,-588.30211 -5.99865,-5.99862 5.99865,-5.99863 c 0.79414,-0.801 0.79414,-2.07912 0,-2.88 -0.79074,-0.784 -2.07908,-0.784 -2.86981,0 l -7.43527,7.43013 c -0.79243,0.80087 -0.79243,2.079 0,2.88 l 7.43527,7.43012 c 0.79073,0.801 2.07907,0.801 2.86981,0 0.79414,-0.78387 0.79414,-2.079 0,-2.863"
         style="fill:#f1f1f1;fill-opacity:1;fill-rule:nonzero;stroke:none"
         id="path1622"
         inkscape:connector-curvature="0" />
      <path
         d="m -447.15484,-702.49798 c 10e-4,-6.71438 2.71132,-12.76425 7.10466,-17.16088 4.39503,-4.37975 10.44821,-7.10637 17.15069,-7.10637 1.12134,0 2.03136,-0.90325 2.03136,-2.028 0,-1.12475 -0.91002,-2.028 -2.03136,-2.028 -15.6391,0 -28.31296,12.679 -28.31636,28.32325 0,1.12475 0.91002,2.028 2.03136,2.028 1.12134,0 2.02965,-0.90325 2.02965,-2.028"
         style="fill:#f1f1f1;fill-opacity:1;fill-rule:nonzero;stroke:none"
         id="path1624"
         inkscape:connector-curvature="0" />
      <path
         d="m -428.05118,-734.50211 5.99865,5.99863 -5.99865,5.99862 c -0.79244,0.801 -0.79244,2.07913 0,2.863 0.79244,0.801 2.07908,0.801 2.86981,0 l 7.43527,-7.43012 c 0.37832,-0.375 0.59645,-0.90325 0.59645,-1.4315 0,-0.52838 -0.21813,-1.05663 -0.59645,-1.4315 l -7.43527,-7.44725 c -0.79073,-0.78388 -2.07737,-0.78388 -2.86981,0 -0.79244,0.801 -0.79244,2.07912 0,2.88012"
         style="fill:#f1f1f1;fill-opacity:1;fill-rule:nonzero;stroke:none"
         id="path1626"
         inkscape:connector-curvature="0" />
    </g>
  </g>
</svg>
