<?xml version="1.0" encoding="UTF-8" standalone="no"?>
<!-- Generator: Adobe Illustrator 19.0.0, SVG Export Plug-In . SVG Version: 6.00 Build 0)  -->

<svg
   xmlns:dc="http://purl.org/dc/elements/1.1/"
   xmlns:cc="http://creativecommons.org/ns#"
   xmlns:rdf="http://www.w3.org/1999/02/22-rdf-syntax-ns#"
   xmlns:svg="http://www.w3.org/2000/svg"
   xmlns="http://www.w3.org/2000/svg"
   xmlns:xlink="http://www.w3.org/1999/xlink"
   xmlns:sodipodi="http://sodipodi.sourceforge.net/DTD/sodipodi-0.dtd"
   xmlns:inkscape="http://www.inkscape.org/namespaces/inkscape"
   version="1.1"
   id="Layer_1"
   x="0px"
   y="0px"
   viewBox="0 0 510.49963 510.49963"
   xml:space="preserve"
   inkscape:version="0.91 r13725"
   sodipodi:docname="magnet (cópia 1).svg"
   width="510.49963"
   height="510.49963"><metadata
     id="metadata51"><rdf:RDF><cc:Work
         rdf:about=""><dc:format>image/svg+xml</dc:format><dc:type
           rdf:resource="http://purl.org/dc/dcmitype/StillImage" /><dc:title></dc:title></cc:Work></rdf:RDF></metadata><defs
     id="defs49"><linearGradient
       inkscape:collect="always"
       id="linearGradient4186"><stop
         style="stop-color:#26053f;stop-opacity:1"
         offset="0"
         id="stop4188" /><stop
         style="stop-color:#f3615f;stop-opacity:1"
         offset="1"
         id="stop4190" /></linearGradient><linearGradient
       inkscape:collect="always"
       xlink:href="#linearGradient4186"
       id="linearGradient4192"
       x1="66.383308"
       y1="435.21835"
       x2="397.23077"
       y2="69.659019"
       gradientUnits="userSpaceOnUse" /><linearGradient
       inkscape:collect="always"
       xlink:href="#linearGradient4186"
       id="linearGradient4194"
       gradientUnits="userSpaceOnUse"
       x1="66.383308"
       y1="435.21835"
       x2="397.23077"
       y2="69.659019" /><linearGradient
       inkscape:collect="always"
       xlink:href="#linearGradient4186"
       id="linearGradient4196"
       gradientUnits="userSpaceOnUse"
       x1="66.383308"
       y1="435.21835"
       x2="397.23077"
       y2="69.659019" /><linearGradient
       inkscape:collect="always"
       xlink:href="#linearGradient4186"
       id="linearGradient4198"
       gradientUnits="userSpaceOnUse"
       x1="66.383308"
       y1="435.21835"
       x2="397.23077"
       y2="69.659019" /></defs><sodipodi:namedview
     pagecolor="#ffffff"
     bordercolor="#666666"
     borderopacity="1"
     objecttolerance="10"
     gridtolerance="10"
     guidetolerance="10"
     inkscape:pageopacity="0"
     inkscape:pageshadow="2"
     inkscape:window-width="1600"
     inkscape:window-height="841"
     id="namedview47"
     showgrid="false"
     fit-margin-top="0"
     fit-margin-left="0"
     fit-margin-right="0"
     fit-margin-bottom="0"
     inkscape:zoom="0.65186406"
     inkscape:cx="307.27756"
     inkscape:cy="201.9167"
     inkscape:window-x="1024"
     inkscape:window-y="30"
     inkscape:window-maximized="1"
     inkscape:current-layer="Layer_1" /><g
     id="g4181"
     transform="matrix(0.70710678,0.70710678,-0.70710678,0.70710678,270.38172,-121.919)"
     style="fill:url(#linearGradient4192);fill-opacity:1"><path
       id="path3"
       d="m 424.177,456.169 -69.293,0 c -18.706,0 -33.924,-15.218 -33.924,-33.924 l 0,-218.94 c 0,-35.941 -28.687,-65.62 -63.949,-66.158 -17.498,-0.302 -34.054,6.372 -46.566,18.693 -12.514,12.327 -19.408,28.756 -19.408,46.261 l 0,67.368 c 0,7.971 -6.463,14.436 -14.436,14.436 -7.973,0 -14.436,-6.464 -14.436,-14.436 l 0,-67.368 c 0,-25.3 9.952,-49.036 28.021,-66.831 18.064,-17.792 41.948,-27.389 67.265,-26.992 50.94,0.778 92.381,43.407 92.381,95.027 l 0,218.94 c 0,2.786 2.266,5.053 5.053,5.053 l 69.293,0 c 2.786,0 5.053,-2.266 5.053,-5.053 l 0,-58.454 c 0,-7.971 6.463,-14.436 14.436,-14.436 7.973,0 14.436,6.464 14.436,14.436 l 0,58.454 c -0.003,18.706 -15.221,33.924 -33.926,33.924 z m -267.062,0 -69.294,0 c -18.706,0 -33.924,-15.218 -33.924,-33.924 l 0,-220.145 C 53.897,90.663 144.56,0 255.999,0 367.438,0 458.1,90.663 458.1,202.1 l 0,66.883 c 0,7.971 -6.463,14.436 -14.436,14.436 -7.973,0 -14.436,-6.464 -14.436,-14.436 l 0,-66.883 c 0,-95.519 -77.711,-173.229 -173.23,-173.229 -95.519,0 -173.229,77.71 -173.229,173.229 l 0,220.145 c 0,2.786 2.266,5.053 5.053,5.053 l 69.293,0 c 2.786,0 5.053,-2.266 5.053,-5.053 l 0,-71.922 c 0,-7.971 6.463,-14.436 14.436,-14.436 7.973,0 14.436,6.464 14.436,14.436 l 0,71.922 c -0.003,18.706 -15.221,33.924 -33.925,33.924 z"
       style="fill:url(#linearGradient4194);fill-opacity:1"
       inkscape:connector-curvature="0" /><path
       id="path7"
       d="m 424.177,456.169 -69.293,0 c -18.706,0 -33.924,-15.218 -33.924,-33.924 l 0,-84.448 c 0,-7.971 6.463,-14.436 14.436,-14.436 l 108.269,0 c 7.973,0 14.436,6.464 14.436,14.436 l 0,84.448 c -10e-4,18.706 -15.219,33.924 -33.924,33.924 z m -74.346,-103.936 0,70.012 c 0,2.786 2.266,5.053 5.053,5.053 l 69.293,0 c 2.786,0 5.053,-2.266 5.053,-5.053 l 0,-70.012 -79.399,0 z"
       style="fill:url(#linearGradient4196);fill-opacity:1"
       inkscape:connector-curvature="0" /><path
       style="fill:url(#linearGradient4198);fill-opacity:1"
       d="m 157.115,456.169 -69.294,0 c -18.706,0 -33.924,-15.218 -33.924,-33.924 l 0,-84.448 c 0,-7.971 6.463,-14.436 14.436,-14.436 l 108.269,0 c 7.973,0 14.436,6.464 14.436,14.436 l 0,84.448 c -0.001,18.706 -15.219,33.924 -33.923,33.924 z m -74.346,-103.936 0,70.012 c 0,2.786 2.266,5.053 5.053,5.053 l 69.293,0 c 2.786,0 5.053,-2.266 5.053,-5.053 l 0,-70.012 -79.399,0 z"
       id="path13"
       inkscape:connector-curvature="0" /></g><g
     id="g17"
     transform="translate(34.120963,-7.7040675)" /><g
     id="g19"
     transform="translate(34.120963,-7.7040675)" /><g
     id="g21"
     transform="translate(34.120963,-7.7040675)" /><g
     id="g23"
     transform="translate(34.120963,-7.7040675)" /><g
     id="g25"
     transform="translate(34.120963,-7.7040675)" /><g
     id="g27"
     transform="translate(34.120963,-7.7040675)" /><g
     id="g29"
     transform="translate(34.120963,-7.7040675)" /><g
     id="g31"
     transform="translate(34.120963,-7.7040675)" /><g
     id="g33"
     transform="translate(34.120963,-7.7040675)" /><g
     id="g35"
     transform="translate(34.120963,-7.7040675)" /><g
     id="g37"
     transform="translate(34.120963,-7.7040675)" /><g
     id="g39"
     transform="translate(34.120963,-7.7040675)" /><g
     id="g41"
     transform="translate(34.120963,-7.7040675)" /><g
     id="g43"
     transform="translate(34.120963,-7.7040675)" /><g
     id="g45"
     transform="translate(34.120963,-7.7040675)" /></svg>